<?xml version="1.0" encoding="utf-8"?>
<!-- Generator: Adobe Illustrator 27.9.0, SVG Export Plug-In . SVG Version: 6.00 Build 0)  -->
<svg version="1.1" id="Layer_1" xmlns="http://www.w3.org/2000/svg" xmlns:xlink="http://www.w3.org/1999/xlink" x="0px" y="0px"
	 viewBox="0 0 64 64" style="enable-background:new 0 0 64 64;" xml:space="preserve">
<style type="text/css">
	.st0{fill-rule:evenodd;clip-rule:evenodd;fill:url(#SVGID_1_);}
</style>
<linearGradient id="SVGID_1_" gradientUnits="userSpaceOnUse" x1="5.8519" y1="57.7688" x2="5.7127" y2="58.7591" gradientTransform="matrix(61.6665 0 0 -61.6657 -325.2657 3621.0183)">
	<stop  offset="0" style="stop-color:#AA7EF6"/>
	<stop  offset="1" style="stop-color:#C8A9FF"/>
</linearGradient>
<path class="st0" d="M34.18,2.62l6.59,12.05c1.96,3.58,4.91,6.53,8.49,8.49l12.05,6.59c1.83,1,1.83,3.64,0,4.64l-12.05,6.59
	c-3.58,1.96-6.53,4.91-8.49,8.49l-6.59,12.06c-1,1.83-3.64,1.83-4.64,0l-6.59-12.06c-1.96-3.58-4.91-6.53-8.49-8.49L2.41,34.4
	c-1.83-1-1.83-3.64,0-4.64l12.05-6.59c3.58-1.96,6.53-4.9,8.49-8.49l6.59-12.05C30.55,0.79,33.18,0.79,34.18,2.62z"/>
</svg>
